<mxfile host="app.diagrams.net" modified="2024-01-26T00:48:02.998Z" agent="Mozilla/5.0 (Macintosh; Intel Mac OS X 10_15_7) AppleWebKit/605.1.15 (KHTML, like Gecko) Version/17.1 Safari/605.1.15" version="23.0.2" etag="5NIs3_1dS4JEnI1ONzW3" type="github">
  <diagram name="Page-1" id="_hX_xXLyxgj4fIzaSplK">
    <mxGraphModel>
      <root>
        <mxCell id="0" />
        <mxCell id="1" parent="0" />
      </root>
    </mxGraphModel>
  </diagram>
</mxfile>
